<?xml version="1.0" encoding="UTF-8" standalone="no"?>
<svg
   id="Ebene_1"
   data-name="Ebene 1"
   viewBox="0 0 1732.4668 610.071"
   version="1.1"
   width="1732.4668"
   height="610.07098"
   xmlns="http://www.w3.org/2000/svg"
   xmlns:svg="http://www.w3.org/2000/svg">
  <defs
     id="defs1">
    <style
       id="style1">
      .cls-1 {
        fill: #e30613;
      }

      .cls-2 {
        fill: #646363;
      }
    </style>
  </defs>
  <path
     class="cls-2"
     d="m 1187.9668,232.3695 c -0.6435,6.171 0.7755,9.2235 8.063,9.2235 h 22.0825 c 15.015,0 19.3105,-1.892 25.124,-4.4275 l -8.7945,22.0935 h -70.081 c -20.746,0 -25.256,-10.9725 -21.879,-28.0115 2.772,-14.003 4.0095,-19.2115 8.3765,-34.0395 5.1425,-17.523 15.2625,-28.1985 35.9975,-28.1985 h 70.5045 l -1.5675,22.4785 c -2.651,-3.289 -9.1905,-4.8125 -20.141,-4.8125 h -25.9215 c -7.293,0 -9.823,2.3265 -12.6775,9.2235 -3.498,8.426 -7.9805,26.2405 -9.086,36.4705 m -261.41502,9.1245 c -4.3945,0 -5.7365,-1.7875 -4.499,-6.809 l 10.2685,-41.096 c 1.243,-4.961 3.6355,-6.9245 8.0465,-6.9245 h 4.6365 l 2.2055,-0.088 h 7.348 c 7.2985,0 8.734,3.0855 8.052,9.2565 -1.056,10.2465 -5.588,28.028 -9.0695,36.4705 -2.849,6.8915 -5.3625,9.2125 -12.683,9.2125 h -14.1405 l -0.165,-0.0165 z m -37.2845,-72.479 c 1.2045,3.652 1.9195,7.6835 -0.3685,16.907 l -26.8235,107.525 h 49.1755 c -1.199,-3.6355 -1.925,-7.667 0.3685,-16.8795 l 6.512,-26.1305 h 0.374 c 0.2695,3.6685 1.265,8.8165 9.537,8.8165 h 35.519 c 20.7515,0 31.3005,-11.495 35.4145,-28.0115 l 8.51952,-34.1825 c 4.1085,-16.5275 -0.682,-28.039 -21.44452,-28.039 h -38.2195 c -6.336,0 -9.3775,3.0525 -14.289,9.5865 l -0.1045,-9.5865 h -44.165 z m 208.27402,24.959 c 1.298,-5.181 0.297,-7.293 -4.73,-7.293 h -15.3285 c -7.3095,0 -9.834,2.31 -12.683,9.2125 -1.111,2.6895 -2.321,6.358 -3.487,10.4005 l 33.1705,-0.0275 3.058,-12.2925 m 24.926,-24.948 c 19.745,0.2035 23.3145,8.6625 18.6725,27.258 l -6.8805,27.665 h -77.2035 c -0.6105,3.0855 -1.067,5.9785 -1.342,8.426 -0.539,5.0765 0.4015,8.0465 4.8015,8.9045 1.2155,0.22 2.486,0.3355 3.861,0.3355 h 43.5655 c 8.657,0 13.409,-0.583 21.538,-3.8445 l -8.855,21.4775 h -90.255 l 0.011,-0.0275 c -19.239,-0.638 -23.408,-11.4235 -20.152,-27.984 2.772,-13.97 4.015,-19.1895 8.393,-34.0505 4.983,-16.9785 14.6795,-27.5055 34.243,-28.1105 l 0.011,-0.055 h 69.586 v 0.011 m 163.306,-32.6645 -5.918,23.8205 h 44.5665 l 5.9455,-23.8205 h -44.5885 z m -25.8225,102.1845 c -3.113,12.4685 -6.325,16.126 -10.153,20.7075 h 55.2915 c -1.5125,-4.5815 -2.9205,-8.239 0.176,-20.7075 l 17.3305,-69.5255 h -50.314 c 1.5455,4.609 2.926,8.2335 -0.1705,20.735 l -12.1605,48.796 z m 141.955,-22.6545 c 1.0945,0 1.4685,-0.5555 1.4685,-0.5555 l -0.4125,1.837 -2.904,11.5665 c -2.893,11.528 -5.709,12.8645 -12.8095,12.8645 h -10.571 c -6.853,-0.176 -8.25,-2.156 -7.678,-8.2555 0.5885,-6.1105 2.299,-10.0815 2.299,-10.0815 2.508,-7.4195 4.8345,-7.1995 11.803,-7.3755 h 18.81 m -54.5875,-46.871 -8.6075,21.505 c 6.05,-2.6895 10.56,-3.839 19.0245,-3.839 h 45.1385 c 3.795,0 7.436,0.9735 6.2315,5.7585 -1.056,4.2075 -2.794,5.764 -9.119,5.764 h -41.316 c -20.3335,0 -27.918,9.6195 -33.4895,28.4295 l -1.617,5.401 c -4.125,19.074 -0.4565,27.2085 19.9155,27.2085 h 32.2355 c 12.2815,0 16.6155,-1.8865 20.9385,-9.955 l 0.093,-1.177 0.099,11.132 h 45.3145 c -1.7545,-3.619 -2.486,-7.6505 -0.176,-16.852 l 9.801,-39.391 c 6.38,-25.553 -2.6785,-33.99 -21.89,-33.99 h -82.5825 z m 115.3845,69.5255 c -3.1405,12.4685 -6.347,16.126 -10.175,20.7075 h 55.3135 c -1.551,-4.5815 -2.948,-8.239 0.165,-20.7075 l 25.4815,-102.201 h -50.303 c 1.5235,4.631 2.9315,8.2775 -0.209,20.7515 l -20.2675,81.4495 z M 738.69378,259.853 h 85.767 c 16.588,0 33.5115,-7.931 40.095,-29.161 3.916,-12.6445 5.346,-20.097 6.083,-27.5165 0.726,-7.436 0.5225,-26.7465 -28.38,-26.7465 l -33.583,0.176 c -7.2985,0 -10.043,-1.661 -9.8285,-6.292 0.1045,-2.6455 0.5555,-4.5925 2.0955,-8.4645 1.7435,-4.4385 5.511,-6.5615 12.8315,-6.5615 h 49.027 c 9.2345,0 12.8535,3.025 15.598,5.918 l 1.3255,-24.926 h -83.9905 c -22.55,0 -35.0735,10.01 -41.4095,30.4425 -3.7675,12.21 -5.335,19.151 -6.1875,24.827 -2.9755,19.4095 6.3415,26.9225 30.3325,27.0655 24.0185,0.165 31.482,-0.143 31.482,-0.143 7.3535,0 9.537,3.5475 8.7285,8.294 -0.5005,2.926 -0.693,3.5365 -1.7215,6.391 -1.6885,4.5705 -5.885,5.9785 -15.0645,6.6935 -9.163,0.7425 -30.976,0.858 -43.186,0 -12.2265,-0.891 -15.972,-1.3915 -17.941,-4.477 l -2.0625,24.4915 z"
     id="path1"
     style="stroke-width:5.5" />
  <path
     class="cls-1"
     d="m 31.311287,224.5045 c -3.234,-1.3915 -5.8025,-3.839 -7.6945,-6.9685 -4.7685,-8.019 -4.983,-20.7075 0.2805,-33.0165 7.381,-17.1985 22.6105,-27.137 34.0725,-22.2365 11.473,4.917 14.784,22.8305 7.403,39.9905 -7.337,17.182 -22.6105,27.137 -34.0615,22.2365 M 165.55529,41.965 c 11.5555,0 20.9385,-9.3885 20.9385,-20.9825 0,-11.594 -9.3775,-20.9825 -20.9385,-20.9825 -11.561,0 -20.988,9.3885 -20.988,20.9825 0,11.594 9.3775,20.9825 20.988,20.9825 m 2.233,49.0875 c -3.289,26.9665 -5.093,82.3625 -0.495,120.4885 0,0 17.314,-5.0325 17.281,-5.4285 -2.827,-42.229 -2.354,-86.1465 1.353,-122.353 32.6645,11.572 54.6975,21.7305 71.962,30.085 4.18,-4.499 7.678,-9.5205 11.6655,-14.1735 -18.5515,-11.4125 -70.7245,-32.3015 -71.2415,-32.4775 12.1055,-3.3935 53.262,-10.8405 94.2205,-11.6985 0.2145,0 -0.33,-14.1295 0,-14.0965 -37.917,-1.0945 -90.717,10.5765 -95.909,12.034 25.762,-19.239 51.337,-30.6515 73.777,-41.184 -1.804,-1.1055 -9.3885,-7.359 -9.3885,-7.359 -47.9325,19.613 -83.974,49.3295 -84.26,49.577 -6.435,5.962 -5.6485,9.229 -8.9705,36.597 M 54.048287,139.2325 C 91.508787,105.204 130.29479,89.4795 129.71729,90.046 99.769787,118.03 82.098287,141.1575 69.981787,158.4 c 2.0845,2.9535 3.718,6.2315 5.896,9.141 34.952503,-44.4455 36.349503,-46.189 60.544003,-68.948 -0.044,0.5665 -8.217,48.4825 -0.7645,123.1945 0,0 15.8455,-5.9785 15.8785,-5.3405 -2.0185,-40.326 -6.5615,-87.076 3.8005,-138.622 2.695,-14.9435 -2.4805,-16.9565 -53.262,-24.827 -3.322003,3.8005 -5.615503,5.4835 -13.200003,12.672 l 44.033003,8.745 c -51.485503,21.043 -83.121503,55.8635 -83.121503,55.8635 0,0 3.8885,9.3005 4.2625,8.9485 M 440.42329,41.965 c 11.5995,0 20.988,-9.3885 20.988,-20.9825 0,-11.594 -9.3885,-20.9825 -20.988,-20.9825 -11.5995,0 -20.977,9.3885 -20.977,20.9825 0,11.594 9.3995,20.9825 20.977,20.9825 m -126.995,13.519 c 40.9695,0.869 82.071,8.338 94.1985,11.6985 -0.506,0.154 -52.69,21.0815 -71.2415,32.4775 3.9875,4.653 7.4745,9.691 11.6765,14.1735 17.2645,-8.3545 39.314,-18.513 71.995,-30.096 3.674,36.201 4.136,80.1515 1.331,122.364 -0.033,0.396 17.2535,5.4285 17.2535,5.4285 4.642,-38.126 2.838,-93.522 -0.451,-120.4885 -3.3275,-27.3735 -2.5465,-30.646 -8.9925,-36.5805 -0.2805,-0.264 -36.311,-29.9805 -84.271,-49.61 0,0 -7.5185,6.2755 -9.3775,7.4085 22.473,10.5215 48.026,21.8955 73.799,41.151 -5.1755,-1.4575 -58.0085,-13.1395 -95.9145,-12.0065 0.341,-0.044 -0.2255,14.0745 0,14.0745 m 137.1865,22.3355 c 10.3785,51.557 5.852,98.2795 3.8115,138.6055 0.033,-0.627 15.8895,5.335 15.8895,5.335 7.447,-74.6955 -0.7315,-122.6115 -0.7975,-123.178 24.222,22.7755 25.586,24.5025 60.577,68.959 2.1505,-2.9205 3.762,-6.182 5.896,-9.1685 -12.1165,-17.215 -29.821,-40.3645 -59.7685,-68.3485 -0.5885,-0.5555 38.2415,15.1635 75.67999,49.1975 0.385,0.363 4.2735,-8.9375 4.2735,-8.9375 0,0 -31.67999,-34.8315 -83.08849,-55.8635 l 44,-8.7615 c -7.6285,-7.172 -9.9055,-8.888 -13.211,-12.6885 -50.787,7.887 -55.979,9.8945 -53.262,24.8435 m -436.529503,157.96 c -6.4679999,-25.6355 3.8445,-60.3295 3.652,-59.6475 -13.3429999,45.0945 -27.2524999,86.2455 -8.9704999,188.5345 -3.8995,-24.013 -2.0735,-76.373 0.7535,-93.7915 1.9469999,-11.946 7.6504999,-22.7755 4.5649999,-35.101 m 91.822503,7.788 c -23.287003,5.544 -53.669003,12.1495 -77.742503,13.2715 -6.864,0.3355 -8.316,8.1345 -9.086,11.0165 -20.3004999,73.7935 3.3,174.922 61.468,236.39 0,0 0.792,-1.2485 0.7095,-1.3695 -39.3195,-53.1685 -50.908,-95.777 -57.0735,-175.9615 0.033,0.561 13.178,53.526 46.1285,99.924 -0.374,-0.5335 6.941,-13.508 8.0685,-14.938 -20.4875,-33.242 -37.4275,-71.5385 -46.618,-102.663 6.974,23.562 54.3895,58.135 71.813503,66.715 l 2.783,-27.4395 c -1.815,-0.9955 -49.186503,-25.872 -73.260003,-66.9515 0.44,-0.044 61.039,-8.1455 75.289503,-14.333 -1.1055,-7.0455 -1.914,-23.7765 -2.4695,-23.661 m 476.55849,13.2715 c -24.0295,-1.6885 -56.73799,-7.7275 -79.98649,-13.2715 -0.572,-0.1155 -1.375,16.6045 -2.4695,23.661 14.245,6.182 74.83299,14.289 75.27299,14.333 -24.0515,41.0795 -71.46699,65.9615 -73.22149,66.9515 l 2.75,27.4395 c 17.457,-8.5855 64.82849,-43.1585 71.79149,-66.715 -9.196,31.1245 -26.147,69.421 -46.62349,102.663 1.1715,1.43 8.4865,14.4045 8.0685,14.938 32.93399,-46.3925 46.12849,-99.363 46.15049,-99.924 -6.1325,80.1845 -17.743,122.793 -57.12849,175.9615 -0.066,0.121 0.7645,1.3695 0.7645,1.3695 58.16799,-61.468 81.77949,-162.5965 61.47899,-236.39 -0.7975,-2.882 -2.222,-10.681 -6.842,-11.0165 m -40.27099,-58.41 c 5.6815,17.8145 19.89349,29.161 31.76249,25.3605 3.3385,-1.0505 6.1545,-3.212 8.349,-6.182 5.511,-7.48 6.292,-19.932 2.8875,-32.901 -5.7035,-21.4445 -19.9265,-31.5755 -31.8065,-27.7915 -11.84699,3.784 -16.85199,23.7215 -11.19249,41.514 m 47.85549,-22.2915 c -0.2255,-0.682 10.076,34.0175 3.652,59.6475 -3.124,12.309 2.6345,23.1385 4.543,35.0845 5.995,37.8675 4.675,69.7565 0.7755,93.808 18.282,-102.2725 4.3285,-143.44 -8.9705,-188.5345 m -241.76349,113.74 c 0,-25.333 -20.559,-45.8865 -45.903,-45.8865 -25.344,0 -45.925,20.5535 -45.925,45.8865 0,25.333 20.548,45.8865 45.925,45.8865 25.377,0 45.903,-20.5315 45.903,-45.8865 m 141.218,64.724 c -56.6115,27.181 -98.3895,32.879 -126.951,37.862 48.917,-38.533 71.005,-65.945 91.234,-93.0215 -3.718,-3.0415 -5.3845,-4.499 -17.501,-17.9135 -10.494,14.377 -38.3185,52.4975 -98.978,96.789 -11.6325,8.4755 -15.114,11.33 -18.447,19.36 -1.397,3.344 -1.342,10.164 -1.309,15.1085 0.1375,22.726 -3.5365,196.3335 -3.63,197.296 5.7695,-0.033 24.288,-0.9625 24.332,-1.4905 7.1775,-77.297 8.712,-107.6185 8.833,-142.373 0,-12.573 0.5775,-22.759 0.5775,-23.8645 40.216,20.5425 67.485,31.372 100.947,43.131 1.9635,-2.4695 14.696,-22.605 15.213,-22.374 -31.746,-14.564 -64.196,-26.6915 -95.337,-42.24 47.091,-9.0475 81.8125,-16.995 123.75,-38.874 0.6875,-0.3795 -3.4925,-27.0105 -2.728,-27.3845 m -198.6765,58.179 c 0.033,-4.9445 0.055,-11.7645 -1.32,-15.1085 -3.3275,-8.063 -6.798,-10.857 -18.447,-19.36 -60.6375,-44.2585 -88.462,-82.412 -98.967,-96.789 -12.1165,13.431 -13.794,14.8885 -17.5175,17.9135 20.262,27.1095 42.3115,54.4885 91.278,93.0545 -28.5835,-5.0105 -70.3835,-10.7085 -126.962,-37.895 0.7645,0.3465 -3.4375,27.005 -2.761,27.3845 41.9155,21.912 76.6755,29.832 123.75,38.9125 -31.097,15.51 -63.591,27.6705 -95.315,42.1685 0.517,-0.198 13.233,19.965 15.18,22.385 33.484,-11.737 60.7585,-22.5665 100.9745,-43.0815 0,1.1055 0.6105,11.264 0.6105,23.837 0.088,34.727 1.5895,65.076 8.778,142.373 0.033,0.5335 18.5735,1.43 24.343,1.463 -0.088,-0.9295 -3.762,-174.537 -3.619,-197.263 m -64.13,173.5195 c 3.3715,0 8.349,0.5775 8.349,-4.2515 0,-3.729 -3.0525,-4.158 -5.984,-4.158 h -6.82 v 8.4095 h 4.455 m 11.495,-4.1965 c 0,4.6585 -3.267,6.4075 -7.4745,6.4955 l 7.2105,11.0275 h -3.5145 l -6.809,-11.0275 h -5.3625 v 11.0275 h -2.9095 v -23.8315 h 10.4225 c 6.314,0 8.4425,2.3815 8.4425,6.3085 m -10.912,24.1285 c 10.3675,0 17.897,-8.0905 17.897,-18.535 0,-10.3675 -7.5295,-18.4855 -17.897,-18.4855 -10.439,0 -18.0125,8.1235 -18.0125,18.4855 0,10.4445 7.5735,18.535 18.0125,18.535 m 0,-39.842 c 11.7865,0 21.2575,9.57 21.2575,21.307 0,11.814 -9.4765,21.3895 -21.2575,21.3895 -11.781,0 -21.4225,-9.57 -21.4225,-21.3895 0,-11.737 9.581,-21.307 21.4225,-21.307"
     id="path13"
     style="stroke-width:5.5" />
  <path
     d="m 1377.6686,436.9095 c 20.7514,0 30.8164,-10.692 36.0083,-28.18731 4.3506,-14.83368 5.5991,-20.04217 8.3491,-34.03957 3.3825,-17.0226 -1.1059,-28.03909 -21.8626,-28.03909 m 137.1371,63.47558 c 1.0934,-10.26857 5.5991,-28.05551 9.119,-36.49811 2.8161,-6.88042 5.3515,-9.25081 12.6446,-9.25081 h 25.9435 c 10.9449,0 17.4789,1.55698 20.1189,4.84534 l 1.5673,-22.46744 h -70.488 c -20.7515,0 -30.8826,10.68098 -35.9976,28.16007 -4.3834,14.84449 -5.5988,20.10786 -8.3765,34.03937 -3.3604,17.05565 1.1267,28.05551 21.8626,28.05551 h 70.1141 l 8.745,-22.07685 c -5.7475,2.49137 -10.0981,4.41088 -25.08,4.41088 h -22.1045 c -7.293,0 -8.723,-3.08547 -8.0576,-9.21256 m -196.7846,9.11361 c -4.4275,0 -5.7475,-1.81058 -4.5098,-6.81452 l 10.2245,-41.09046 c 1.2368,-5.00498 3.6739,-6.94112 8.0904,-6.94112 h 4.5759 l 2.244,-0.0624 h 7.3482 c 7.3259,0 8.7558,3.09109 8.0684,9.19613 -1.0726,10.25734 -5.5881,28.07194 -9.097,36.4979 -2.8545,6.88604 -5.3625,9.22358 -12.6445,9.22358 h -14.1461 l -0.1457,-0.011 z m -37.3063,-72.48463 c 1.1827,3.63551 1.9249,7.65601 -0.374,16.8906 l -26.8345,107.54154 h 49.1865 c -1.2036,-3.6355 -1.9353,-7.656 0.374,-16.87957 l 6.5121,-26.136 h 0.3844 c 0.2266,3.64112 1.2535,8.83298 9.504,8.83298 h 35.5355 c 20.735,0 31.2786,-11.51144 35.387,-28.0445 l 8.5415,-34.18238 c 4.1361,-16.51663 -0.6755,-28.02807 -21.417,-28.02807 h -38.2195 c -6.325,0 -9.3995,3.05803 -14.3165,9.57551 l -0.083,-9.57551 h -44.1816 z m -407.72624,69.51453 c -3.0965,12.46849 -6.3195,16.13705 -10.1475,20.73502 h 55.32455 c -1.5455,-4.59797 -2.9425,-8.26653 0.18095,-20.73502 l 25.4595,-102.20084 h -50.31394 c 1.51244,4.6308 2.9205,8.26631 -0.18095,20.75144 l -20.31706,81.4494 z m 119.32804,20.95516 c 8.9155,0 12.9965,-1.90829 16.5715,-7.66702 h 0.049 l -3.663,15.9059 c -1.0614,4.23501 -3.927,8.29396 -12.6005,8.29396 h -42.09149 c -10.769,0 -14.7895,-2.32652 -18.491,-4.43852 l -2.0515,22.08807 h 88.92949 c 16.5055,0 27.313,-8.6405 31.559,-25.72338 l 24.6235,-98.736 h -48.983 c 1.5179,4.04232 2.2166,5.74731 -0.6105,17.11032 l -11.9185,47.83368 c -1.2869,5.13699 -3.4155,7.656 -7.293,7.656 h -16.7035 c -4.939,0 -6.479,-4.03151 -5.4725,-8.06301 l 16.0875,-64.53699 h -50.33599 c 1.55095,4.64183 2.93695,8.68997 -0.1705,21.1859 l -9.141,36.26154 c -4.1525,21.04288 0.5115,32.82955 21.967,32.82955 h 29.75499 z m 95.777,-90.46968 c 1.5676,4.59817 2.948,8.2501 -0.16,20.724 l -12.1605,48.79052 c -3.113,12.46849 -6.3305,16.13705 -10.164,20.73502 h 51.4688 c -1.5507,-4.59797 -2.9535,-8.26653 0.1661,-20.73502 l 11.2861,-45.34751 c 1.16,-4.59797 3.7401,-6.53389 7.1996,-6.53389 h 14.9875 c 3.2228,0 4.7135,4.38344 3.9379,6.53389 l -11.2751,45.34751 c -3.1403,12.46849 -6.3524,16.13705 -10.1968,20.73502 h 51.469 c -1.5238,-4.59797 -2.9097,-8.26653 0.2079,-20.73502 l 11.2638,-45.34751 c 1.1558,-4.59797 3.7457,-6.53389 7.2052,-6.53389 h 14.9875 c 2.4034,0 5.1644,1.67754 3.938,6.53389 l -11.3026,45.34751 c -3.1075,12.46849 -6.336,16.13705 -10.1584,20.73502 h 51.4634 c -1.557,-4.59797 -2.9534,-8.26653 0.1661,-20.73502 l 8.5305,-34.18239 c 7.7331,-31.12996 -3.6739,-35.33213 -18.6725,-35.33213 h -31.0969 c -7.678,0 -10.934,6.15452 -12.5895,9.80666 h -0.1248 c -0.6757,-5.57705 -2.6731,-9.80667 -13.5851,-9.80667 h -40.5019 c -8.4206,0 -12.4631,6.9247 -14.7676,10.92857 h -0.044 l 1.5611,-10.92857 h -43.0319 z m 344.179,-32.68632 -5.951,23.8315 h 44.5501 l 5.962,-23.8315 z m -25.8554,102.20084 c -3.1021,12.48512 -6.325,16.12063 -10.175,20.7186 h 55.3244 c -1.5237,-4.59797 -2.9204,-8.23348 0.187,-20.7186 l 17.3251,-69.51453 h -50.3361 c 1.5569,4.59818 2.9316,8.25011 -0.1457,20.72401 z m 237.2646,-40.92 c -4.4442,0 -5.3185,-2.89298 -4.7905,-5.06548 l 0.9563,-3.85543 c 0.5384,-2.13944 2.5905,-3.31643 7.0454,-3.31643 h 35.5906 c 10.6755,0 23.1166,1.54035 25.6961,6.02232 l 1.7815,-22.74246 h -78.903 c -17.5175,0 -31.3225,9.34457 -34.8149,23.34197 l -4.4165,14.784 c -2.2002,11.26407 2.5024,23.10561 23.5124,23.10561 h 35.761 c 4.664,0 5.7365,2.92604 4.8125,6.62204 l -0.4741,1.93115 c -0.9354,3.696 -2.5575,4.86197 -7.249,4.86197 h -38.6706 c -16.137,0 -19.8715,-1.36989 -27.2855,-5.25256 l -1.952,21.98891 h 85.1618 c 20.3885,0 30.5087,-12.45747 33.396,-24.11194 l 3.9547,-14.21754 c 2.1999,-11.06035 -3.1129,-24.10091 -24.0955,-24.10091 h -35.0185 z M 845.85138,343.71209 c -1.01195,5.63193 -12.397,53.43797 -15.884,64.3501 -1.62245,5.07649 -6.9025,8.39292 -11.4565,8.64049 -7.722,0.42405 -13.596,0.43445 -20.3445,0 -5.6485,-0.38043 -7.865,-4.77403 -6.9135,-9.504 2.618,-13.31557 12.98,-56.5621 16.0215,-64.44905 2.53,-6.49003 7.1555,-8.09045 11.3245,-8.31059 6.908,-0.37417 13.651,-0.31807 20.3665,0 4.8785,0.22033 7.733,4.45494 6.886,9.27305 m -92.2075,6.47341 c -5.5,17.46266 -6.644,22.80315 -12.771,50.74869 -5.5275,25.15692 2.475,35.81046 21.9505,36.33285 23.9855,0.6548 57.5465,0.61115 79.1615,0 23.2705,-0.64233 32.164,-9.31151 40.1225,-36.33285 7.1995,-24.46407 7.6395,-26.47712 12.639,-50.72105 5.12605,-24.70603 -3.223,-35.54646 -21.9615,-36.34407 -21.329,-0.90217 -55.924,-1.03313 -79.1285,0 -23.276,1.03313 -30.877,7.45249 -40.007,36.32204"
     style="fill:#646363;stroke-width:5.49999"
     id="path1-2" />
</svg>
